<svg id="visual" viewBox="0 0 900 600" width="900" height="600" xmlns="http://www.w3.org/2000/svg" xmlns:xlink="http://www.w3.org/1999/xlink" version="1.1"><path d="M0 106L21.5 99.3C43 92.7 86 79.3 128.8 75C171.7 70.7 214.3 75.3 257.2 73.7C300 72 343 64 385.8 70.8C428.7 77.7 471.3 99.3 514.2 98C557 96.7 600 72.3 642.8 62.7C685.7 53 728.3 58 771.2 66.7C814 75.3 857 87.7 878.5 93.8L900 100L900 0L878.5 0C857 0 814 0 771.2 0C728.3 0 685.7 0 642.8 0C600 0 557 0 514.2 0C471.3 0 428.7 0 385.8 0C343 0 300 0 257.2 0C214.3 0 171.7 0 128.8 0C86 0 43 0 21.5 0L0 0Z" fill="#2cbced" stroke-linecap="round" stroke-linejoin="miter"></path></svg>
